<svg width="24" height="24" viewBox="0 0 24 24" fill="none" xmlns="http://www.w3.org/2000/svg">
<path d="M15.252 10.689C14.265 9.50896 13.772 8.91896 13.204 9.00896C12.637 9.09996 12.372 9.81196 11.842 11.236L11.704 11.604C11.554 12.009 11.478 12.211 11.331 12.36C11.185 12.509 10.983 12.588 10.581 12.746L10.214 12.889C8.797 13.444 8.088 13.722 8.007 14.289C7.926 14.856 8.527 15.338 9.728 16.3L10.038 16.55C10.38 16.823 10.551 16.96 10.649 17.147C10.749 17.334 10.764 17.551 10.795 17.984L10.824 18.378C10.934 19.901 10.99 20.663 11.507 20.923C12.024 21.183 12.661 20.768 13.934 19.94L14.263 19.725C14.625 19.49 14.806 19.372 15.013 19.338C15.221 19.305 15.433 19.36 15.854 19.47L16.239 19.57C17.724 19.956 18.467 20.15 18.868 19.743C19.269 19.336 19.061 18.599 18.647 17.123L18.539 16.743C18.422 16.323 18.363 16.113 18.392 15.906C18.422 15.698 18.537 15.516 18.766 15.15L18.976 14.818C19.783 13.533 20.186 12.891 19.916 12.38C19.647 11.869 18.883 11.827 17.354 11.745L16.958 11.723C16.524 11.7 16.306 11.688 16.117 11.593C15.927 11.498 15.787 11.33 15.507 10.994L15.252 10.689Z" fill="#FF0066"/>
<path d="M14.878 5.167L15.061 5.689C15.262 6.262 15.363 6.549 15.558 6.759C15.754 6.97099 16.022 7.083 16.559 7.306L17.048 7.51C18.938 8.296 19.883 8.69 19.99 9.493C20.035 9.827 19.923 10.141 19.66 10.491C19.576 10.4682 19.4913 10.4482 19.406 10.431C18.88 10.324 18.211 10.288 17.529 10.251L17.039 10.225L16.809 10.212L16.658 10.032L16.342 9.65499C15.902 9.127 15.472 8.61199 15.07 8.25399C14.643 7.87199 13.929 7.374 12.967 7.528C11.995 7.684 11.477 8.391 11.197 8.895C10.938 9.363 10.705 9.989 10.469 10.622L10.299 11.08L10.227 11.273C10.1737 11.293 10.1093 11.3183 10.034 11.349L9.57801 11.527C8.94801 11.774 8.32501 12.017 7.86101 12.284C7.36301 12.571 6.66101 13.101 6.52201 14.077C6.38501 15.044 6.90001 15.75 7.28901 16.169C7.57901 16.48 7.97001 16.809 8.38701 17.147C6.81801 17.572 5.98401 17.731 5.51001 17.219C4.97601 16.643 5.25201 15.599 5.80501 13.509L5.94701 12.969C6.10401 12.374 6.18301 12.078 6.14401 11.783C6.10401 11.489 5.95101 11.23 5.64501 10.713L5.36701 10.243C4.29001 8.422 3.75201 7.512 4.11001 6.787C4.47001 6.063 5.48901 6.004 7.52801 5.887L8.05501 5.857C8.63501 5.823 8.92401 5.807 9.17701 5.672C9.42901 5.537 9.61601 5.3 9.99001 4.824L10.33 4.392C11.646 2.719 12.304 1.883 13.06 2.012C13.816 2.141 14.17 3.149 14.877 5.166" fill="#FF0066"/>
</svg>
