<svg width="19" height="20" viewBox="0 0 19 20" fill="none" xmlns="http://www.w3.org/2000/svg">
<path d="M10.1448 3.15041C10.0616 3.06329 9.96166 2.99394 9.85093 2.94656C9.7402 2.89918 9.62101 2.87476 9.50057 2.87476C9.38013 2.87476 9.26094 2.89918 9.15021 2.94656C9.03948 2.99394 8.93952 3.06329 8.85635 3.15041L2.62198 9.68166C2.50155 9.80775 2.42078 9.96643 2.3897 10.138C2.35861 10.3096 2.37857 10.4865 2.44711 10.6468C2.51564 10.8072 2.62973 10.9439 2.77523 11.04C2.92073 11.136 3.09123 11.1873 3.2656 11.1874H4.74998V15.9374C4.74998 16.2523 4.87509 16.5544 5.09779 16.7771C5.32049 16.9998 5.62253 17.1249 5.93748 17.1249H7.12498C7.43992 17.1249 7.74197 16.9998 7.96467 16.7771C8.18737 16.5544 8.31248 16.2523 8.31248 15.9374V14.7499C8.31248 14.435 8.43759 14.1329 8.66029 13.9102C8.88299 13.6875 9.18503 13.5624 9.49998 13.5624C9.81492 13.5624 10.117 13.6875 10.3397 13.9102C10.5624 14.1329 10.6875 14.435 10.6875 14.7499V15.9374C10.6875 16.2523 10.8126 16.5544 11.0353 16.7771C11.258 16.9998 11.56 17.1249 11.875 17.1249H13.0625C13.3774 17.1249 13.6795 16.9998 13.9022 16.7771C14.1249 16.5544 14.25 16.2523 14.25 15.9374V11.1874H15.7344C15.9088 11.1875 16.0795 11.1364 16.2252 11.0404C16.3708 10.9444 16.4851 10.8078 16.5538 10.6474C16.6225 10.487 16.6425 10.31 16.6115 10.1383C16.5805 9.96661 16.4997 9.80783 16.3792 9.68166L10.1448 3.15041Z" fill="#FF0066"/>
</svg>
