<svg width="19" height="20" viewBox="0 0 19 20" fill="none" xmlns="http://www.w3.org/2000/svg">
<path fill-rule="evenodd" clip-rule="evenodd" d="M9.50003 3.62075C10.4273 2.76165 11.6441 2.28339 12.9082 2.28125C14.2746 2.28125 15.5792 2.84333 16.534 3.83292C17.484 4.82329 18.0133 6.14336 18.0104 7.51575C18.0133 8.88814 17.484 10.2082 16.534 11.1986C15.9038 11.8517 15.2744 12.5207 14.6419 13.192C13.3562 14.5568 12.0571 15.9367 10.7073 17.2358L10.7049 17.239C10.3698 17.5564 9.92294 17.7287 9.46148 17.7184C9.00002 17.7082 8.56124 17.5163 8.24048 17.1844L2.46528 11.1986C0.497984 9.15846 0.497984 5.87304 2.46528 3.83371C3.37459 2.88086 4.62247 2.32432 5.93897 2.28446C7.25548 2.24461 8.53474 2.72465 9.50003 3.62075Z" fill="#FF0066"/>
</svg>
