<svg width="19" height="20" viewBox="0 0 19 20" fill="none" xmlns="http://www.w3.org/2000/svg">
<path d="M7.98356 1.75163C8.06214 1.79058 8.13111 1.84645 8.18552 1.91524C8.23994 1.98402 8.27843 2.06401 8.29825 2.14944C8.31962 2.24325 8.90625 4.75363 8.90625 6.4375C8.90625 7.56563 8.38137 8.57144 7.56437 9.22338C7.2675 9.46088 7.125 9.71975 7.125 9.93588V10.513C7.125 10.5407 7.12658 10.5668 7.12975 10.5914C7.17013 10.8859 7.31619 11.9796 7.45275 13.1136C7.58694 14.2263 7.71875 15.4399 7.71875 15.9375C7.71875 16.5674 7.46853 17.1715 7.02313 17.6169C6.57773 18.0623 5.97364 18.3125 5.34375 18.3125C4.71386 18.3125 4.10977 18.0623 3.66437 17.6169C3.21897 17.1715 2.96875 16.5674 2.96875 15.9375C2.96875 15.4388 3.10056 14.2275 3.23475 13.1136C3.37131 11.9796 3.51738 10.8859 3.55775 10.5914L3.5625 10.513V9.93588C3.5625 9.71975 3.42 9.46088 3.12313 9.22338C2.70451 8.88968 2.36648 8.46593 2.13417 7.98362C1.90185 7.50131 1.78123 6.97284 1.78125 6.4375C1.78125 4.75956 2.36313 2.26225 2.38925 2.15063C2.42012 2.01862 2.49481 1.90098 2.60113 1.81687C2.70744 1.73276 2.83912 1.68716 2.97469 1.6875C3.30719 1.6875 3.57675 1.95706 3.57675 2.28956V5.84969C3.57207 5.92988 3.58387 6.01018 3.61143 6.08563C3.639 6.16109 3.68173 6.23009 3.737 6.28838C3.79227 6.34667 3.8589 6.39302 3.93277 6.42456C4.00665 6.4561 4.08621 6.47216 4.16654 6.47175C4.24687 6.47134 4.32626 6.45448 4.39981 6.42219C4.47337 6.38991 4.53952 6.34289 4.5942 6.28404C4.64887 6.22519 4.69091 6.15576 4.71771 6.08003C4.7445 6.00431 4.75549 5.92389 4.75 5.84375V2.28125C4.75 2.12378 4.81256 1.97276 4.92391 1.86141C5.03526 1.75006 5.18628 1.6875 5.34375 1.6875C5.50122 1.6875 5.65224 1.75006 5.76359 1.86141C5.87494 1.97276 5.9375 2.12378 5.9375 2.28125V5.87463C5.94081 6.03052 6.00591 6.17872 6.11848 6.28662C6.23106 6.39452 6.38188 6.45328 6.53778 6.44997C6.69368 6.44666 6.84188 6.38156 6.94978 6.26899C7.05767 6.15641 7.11643 6.00559 7.11312 5.84969V2.28719C7.11312 1.95588 7.3815 1.6875 7.714 1.6875C7.74012 1.6875 7.8565 1.6875 7.98356 1.75163ZM10.6875 7.03125C10.6875 5.614 11.2505 4.2548 12.2526 3.25265C13.2548 2.2505 14.614 1.6875 16.0312 1.6875C16.1887 1.6875 16.3397 1.75006 16.4511 1.86141C16.5624 1.97276 16.625 2.12378 16.625 2.28125V9.37419L16.6476 9.58438C16.742 10.4706 16.8327 11.3573 16.9195 12.2444C17.0656 13.7359 17.2188 15.4079 17.2188 15.9375C17.2188 16.5674 16.9685 17.1715 16.5231 17.6169C16.0777 18.0623 15.4736 18.3125 14.8438 18.3125C14.2139 18.3125 13.6098 18.0623 13.1644 17.6169C12.719 17.1715 12.4688 16.5674 12.4688 15.9375C12.4688 15.4079 12.6219 13.7359 12.768 12.2444C12.8428 11.4879 12.9176 10.7636 12.9734 10.2268L12.9972 10H11.875C11.5601 10 11.258 9.87489 11.0353 9.65219C10.8126 9.42949 10.6875 9.12745 10.6875 8.8125V7.03125Z" fill="#FF0066"/>
</svg>
