<svg width="19" height="20" viewBox="0 0 19 20" fill="none" xmlns="http://www.w3.org/2000/svg">
<path fill-rule="evenodd" clip-rule="evenodd" d="M11.3042 2.20359C11.0113 2.08325 10.6392 2.08325 9.89584 2.08325C9.15246 2.08325 8.78117 2.08325 8.48746 2.20359C8.29421 2.28255 8.11848 2.39895 7.97038 2.5461C7.82229 2.69324 7.70476 2.86822 7.62455 3.06096C7.55013 3.2375 7.52163 3.44413 7.50976 3.74417C7.50411 3.96148 7.44331 4.17379 7.33308 4.36116C7.22285 4.54852 7.0668 4.7048 6.87959 4.81529C6.68859 4.92146 6.4739 4.9777 6.25538 4.97881C6.03687 4.97991 5.82161 4.92585 5.62955 4.82163C5.36196 4.68071 5.16801 4.60313 4.97642 4.57779C4.5573 4.52311 4.13351 4.63574 3.79684 4.89129C3.54509 5.08288 3.35905 5.40271 2.98776 6.04158C2.61567 6.68046 2.43042 6.9995 2.38846 7.31221C2.33305 7.72863 2.44705 8.14979 2.70513 8.48308C2.8223 8.63508 2.98776 8.76254 3.24346 8.92246C3.62109 9.15758 3.86334 9.55817 3.86334 9.99992C3.86334 10.4417 3.62109 10.8423 3.24426 11.0766C2.98776 11.2373 2.8223 11.3648 2.70434 11.5168C2.57733 11.6816 2.48406 11.8698 2.42986 12.0707C2.37566 12.2717 2.36159 12.4813 2.38846 12.6876C2.43042 12.9995 2.61567 13.3194 2.98776 13.9583C3.35984 14.5971 3.54509 14.9162 3.79684 15.1085C4.13251 15.3643 4.55684 15.4767 4.97642 15.422C5.16801 15.3967 5.36196 15.3191 5.62955 15.1782C5.82171 15.0738 6.03711 15.0197 6.25578 15.0208C6.47444 15.0219 6.68929 15.0782 6.88038 15.1845C7.26513 15.4062 7.49313 15.8139 7.50976 16.2557C7.52163 16.5565 7.55013 16.7623 7.62455 16.9389C7.78605 17.3268 8.09638 17.6355 8.48746 17.7963C8.78038 17.9166 9.15246 17.9166 9.89584 17.9166C10.6392 17.9166 11.0113 17.9166 11.3042 17.7963C11.4975 17.7173 11.6732 17.6009 11.8213 17.4537C11.9694 17.3066 12.0869 17.1316 12.1671 16.9389C12.2415 16.7623 12.27 16.5565 12.2819 16.2557C12.2978 15.8139 12.5265 15.4054 12.9121 15.1845C13.1031 15.0784 13.3178 15.0221 13.5363 15.021C13.7548 15.0199 13.9701 15.074 14.1621 15.1782C14.4297 15.3191 14.6237 15.3967 14.8153 15.422C15.2348 15.4775 15.6592 15.3643 15.9948 15.1085C16.2466 14.917 16.4326 14.5971 16.8039 13.9583C17.176 13.3194 17.3613 13.0003 17.4032 12.6876C17.43 12.4812 17.4158 12.2716 17.3614 12.0707C17.3071 11.8698 17.2137 11.6815 17.0865 11.5168C16.9694 11.3648 16.8039 11.2373 16.5482 11.0774C16.1706 10.8423 15.9283 10.4417 15.9283 9.99992C15.9283 9.55817 16.1706 9.15759 16.5474 8.92325C16.8039 8.76254 16.9694 8.63508 17.0873 8.48308C17.2143 8.31825 17.3076 8.13 17.3618 7.92909C17.416 7.72818 17.4301 7.51856 17.4032 7.31221C17.3613 7.00029 17.176 6.68046 16.8039 6.04158C16.4318 5.40271 16.2466 5.08367 15.9948 4.89129C15.6582 4.63574 15.2344 4.52311 14.8153 4.57779C14.6237 4.60313 14.4297 4.68071 14.1621 4.82163C13.97 4.92599 13.7546 4.98013 13.5359 4.97902C13.3172 4.97792 13.1024 4.9216 12.9113 4.81529C12.7242 4.7047 12.5683 4.54838 12.4583 4.36103C12.3482 4.17367 12.2875 3.96141 12.2819 3.74417C12.27 3.44334 12.2415 3.2375 12.1671 3.06096C12.0869 2.86822 11.9694 2.69324 11.8213 2.5461C11.6732 2.39895 11.4975 2.28255 11.3042 2.20359ZM9.89584 12.3749C11.2179 12.3749 12.289 11.3117 12.289 9.99992C12.289 8.68813 11.2171 7.62492 9.89584 7.62492C8.57455 7.62492 7.50263 8.68813 7.50263 9.99992C7.50263 11.3117 8.57455 12.3749 9.89584 12.3749Z" fill="#FF0066"/>
</svg>
